<?xml version="1.0" standalone="no"?>
<!DOCTYPE svg PUBLIC "-//W3C//DTD SVG 20010904//EN"
 "http://www.w3.org/TR/2001/REC-SVG-20010904/DTD/svg10.dtd">
<svg version="1.0" xmlns="http://www.w3.org/2000/svg"
 width="1024.000000pt" height="1024.000000pt" viewBox="0 0 1024.000000 1024.000000"
 preserveAspectRatio="xMidYMid meet">
<metadata>
Created by potrace 1.14, written by Peter Selinger 2001-2017
</metadata>
<g transform="translate(0.000000,1024.000000) scale(0.100000,-0.100000)"
fill="#000000" stroke="none">
<path d="M6346 7314 c-194 -38 -275 -58 -287 -71 -13 -14 -72 -310 -239 -1203
l-221 -1185 22 -120 c12 -66 25 -130 30 -143 18 -48 31 -47 521 48 255 49 463
88 464 87 0 -1 20 -103 43 -226 23 -123 46 -234 51 -247 18 -46 44 -46 267 -4
115 22 218 44 231 50 44 19 44 44 -4 287 -24 125 -42 233 -40 238 2 6 48 19
102 29 168 31 165 26 119 267 -19 99 -40 189 -45 200 -17 30 -49 32 -165 9
-59 -11 -109 -19 -110 -18 -1 2 -88 455 -194 1008 -180 939 -194 1006 -217
1028 -14 12 -33 22 -42 21 -9 -1 -138 -25 -286 -55z m164 -1937 c18 -92 31
-169 29 -171 -2 -2 -86 -19 -186 -38 -179 -34 -182 -34 -178 -14 2 12 38 287
80 611 41 325 78 601 82 615 3 15 33 -149 73 -405 37 -236 82 -506 100 -598z"/>
<path d="M4440 6948 c-208 -40 -259 -53 -277 -71 -18 -19 -50 -179 -242 -1207
l-221 -1185 25 -129 c26 -136 41 -166 83 -166 14 0 228 39 474 86 247 48 451
85 453 83 2 -2 23 -109 48 -237 31 -161 50 -238 62 -252 25 -28 55 -25 295 23
196 40 206 43 218 69 11 24 7 57 -33 264 -25 130 -45 238 -43 239 2 2 49 12
106 24 118 24 140 33 147 64 9 36 -63 389 -84 410 -23 24 -37 24 -159 2 -56
-10 -104 -16 -105 -14 -2 2 -90 456 -196 1009 -130 678 -198 1011 -208 1023
-23 25 -55 21 -343 -35z m70 -1328 c33 -217 77 -480 97 -583 19 -103 33 -190
30 -193 -9 -9 -350 -74 -356 -68 -5 5 143 1177 156 1239 8 37 2 72 73 -395z"/>
<path d="M9193 6945 c-89 -18 -167 -36 -173 -40 -6 -4 -15 -17 -19 -28 -5 -12
-19 -204 -32 -426 l-23 -404 -18 39 c-11 22 -90 190 -176 374 -126 268 -163
337 -184 347 -21 11 -52 7 -199 -21 -96 -19 -401 -78 -679 -131 -278 -53 -511
-102 -519 -108 -28 -24 -29 -53 -1 -191 29 -147 39 -166 89 -166 14 0 82 11
151 25 68 13 125 23 126 22 1 -1 76 -393 168 -872 92 -478 171 -880 176 -893
18 -43 47 -44 230 -7 95 19 178 39 186 46 8 6 14 26 14 43 0 18 -74 418 -165
890 -91 472 -165 863 -165 869 0 7 57 23 143 39 103 20 146 32 157 46 14 17
35 -20 291 -507 l276 -526 63 -330 c34 -181 67 -340 71 -353 16 -41 43 -42
229 -6 95 19 180 40 188 48 22 21 17 59 -51 407 l-63 326 77 729 c50 473 73
737 68 752 -8 19 -47 44 -67 41 -4 -1 -80 -16 -169 -34z"/>
<path d="M2618 6597 c-132 -27 -162 -36 -182 -57 -35 -38 -539 -820 -544 -846
-7 -36 13 -59 143 -164 142 -115 164 -122 211 -67 16 18 70 85 119 150 50 64
91 113 92 109 5 -15 343 -1780 343 -1789 0 -5 -66 -23 -147 -39 -202 -40 -194
-25 -147 -264 21 -110 42 -192 51 -202 9 -10 28 -18 43 -18 35 0 1119 208
1148 220 46 20 47 45 12 227 -18 92 -36 178 -41 191 -16 41 -46 43 -202 13
l-144 -27 -246 1279 c-179 932 -251 1284 -263 1298 -23 26 -58 24 -246 -14z"/>
<path d="M1196 6324 c-115 -23 -176 -39 -187 -51 -23 -24 -537 -817 -548 -846
-5 -12 -5 -32 0 -44 10 -26 248 -220 281 -228 34 -9 64 18 159 143 45 59 92
117 103 130 l20 23 173 -898 c95 -493 170 -899 168 -901 -2 -3 -68 -17 -145
-33 -78 -15 -147 -33 -155 -39 -7 -6 -16 -21 -19 -34 -5 -22 56 -365 69 -387
21 -34 52 -30 627 81 314 60 577 115 585 122 34 28 34 45 -2 230 -22 112 -41
189 -52 200 -21 24 -46 23 -197 -8 -70 -14 -130 -23 -133 -21 -2 3 -114 578
-249 1279 -231 1202 -246 1274 -270 1296 -31 27 -20 27 -228 -14z"/>
</g>
</svg>
